<?xml version="1.0" encoding="UTF-8" standalone="no"?>
<!-- Created with Inkscape (http://www.inkscape.org/) -->

<svg
   version="1.1"
   id="svg1"
   width="10.000114"
   height="11.597892"
   viewBox="0 0 10.000114 11.597892"
   sodipodi:docname="logo_v1.svg"
   inkscape:version="1.3.2 (1:1.3.2+202311252150+091e20ef0f)"
   xmlns:inkscape="http://www.inkscape.org/namespaces/inkscape"
   xmlns:sodipodi="http://sodipodi.sourceforge.net/DTD/sodipodi-0.dtd"
   xmlns="http://www.w3.org/2000/svg"
   xmlns:svg="http://www.w3.org/2000/svg">
  <defs
     id="defs1" />
  <sodipodi:namedview
     id="namedview1"
     pagecolor="#505050"
     bordercolor="#eeeeee"
     borderopacity="1"
     inkscape:showpageshadow="0"
     inkscape:pageopacity="0"
     inkscape:pagecheckerboard="0"
     inkscape:deskcolor="#505050"
     showgrid="false"
     inkscape:zoom="56.767704"
     inkscape:cx="4.1044465"
     inkscape:cy="6.4120966"
     inkscape:window-width="1978"
     inkscape:window-height="1088"
     inkscape:window-x="0"
     inkscape:window-y="0"
     inkscape:window-maximized="1"
     inkscape:current-layer="g1" />
  <g
     inkscape:groupmode="layer"
     inkscape:label="Image"
     id="g1"
     transform="translate(-179.97265,-35.686657)">
    <path
       style="fill:#000000;stroke-width:0.0260398"
       d="m 184.59338,47.26676 c 0.0371,-0.01424 0.0412,-0.233104 0.0412,-2.208866 v -2.19306 l -0.35154,-0.354395 -0.35153,-0.354395 v -0.604629 c 0,-0.595343 -9.5e-4,-0.605866 -0.0615,-0.685206 -0.0886,-0.116122 -0.32286,-0.350238 -0.47145,-0.471175 -0.0704,-0.05729 -0.16676,-0.142633 -0.21416,-0.189657 l -0.0862,-0.0855 V 39.792884 39.46589 l -0.15798,0.152093 c -0.0869,0.08365 -0.1691,0.156062 -0.1827,0.160915 -0.0136,0.0049 -0.11017,0.09274 -0.21459,0.195299 -0.17896,0.175769 -0.26165,0.24731 -0.44726,0.38698 -0.17254,0.129833 -0.19009,0.124993 0.45323,0.124993 h 0.60016 l 0.24799,0.244786 0.24799,0.244785 v 0.626336 0.626336 l 0.35154,0.349713 0.35153,0.349712 v 2.126995 c 0,1.416394 0.009,2.143821 0.027,2.177362 0.0271,0.05058 0.1329,0.06733 0.21829,0.03456 z m 0.49503,-0.02511 c 0.0366,-0.03664 0.0409,-0.305015 0.0409,-2.564054 v -2.523134 l 0.092,-0.09201 c 0.0506,-0.0506 0.10077,-0.09201 0.11148,-0.09201 0.0107,0 0.0863,-0.0675 0.16791,-0.150002 l 0.14844,-0.150002 0.007,-0.637702 0.007,-0.637703 0.11419,-0.0082 c 0.0628,-0.0045 0.13103,-0.02501 0.15159,-0.04557 0.0206,-0.02056 0.0533,-0.03739 0.0728,-0.03739 0.0195,0 0.0437,-0.02637 0.0537,-0.05859 0.0101,-0.03222 0.0314,-0.06695 0.0473,-0.07717 0.0168,-0.01076 0.029,-0.09526 0.029,-0.200902 v -0.182322 l -0.12501,-0.118085 c -0.11701,-0.110539 -0.13413,-0.118086 -0.26782,-0.118086 -0.18997,0 -0.35475,0.104189 -0.39058,0.246962 -0.009,0.0363 -0.027,0.07245 -0.0397,0.08032 -0.0127,0.0079 -0.0231,0.04307 -0.0231,0.07823 0,0.06388 0.005,0.07849 0.0867,0.241089 0.037,0.07388 0.0435,0.180514 0.0435,0.71907 v 0.632331 l -0.13671,0.138889 -0.13671,0.138891 -0.007,-1.241031 -0.007,-1.24103 0.23461,-0.231945 c 0.24145,-0.238711 0.28044,-0.316605 0.18424,-0.368089 -0.0808,-0.04325 -0.0991,-0.03468 -0.25616,0.11986 l -0.14917,0.146817 -0.007,-1.011432 c -0.006,-0.880297 -0.002,-1.014288 0.0326,-1.033464 0.0216,-0.01212 0.0394,-0.03989 0.0394,-0.06171 0,-0.111881 0.19884,0.102877 0.30433,0.328701 0.01,0.02148 0.0336,0.05454 0.0523,0.07347 0.0187,0.01893 0.034,0.0499 0.034,0.06882 0,0.01893 0.0176,0.04116 0.0391,0.0494 0.0215,0.0082 0.0391,0.03293 0.0391,0.05486 0,0.02193 0.0109,0.03988 0.0243,0.03988 0.0134,0 0.0325,0.02582 0.0425,0.05738 0.01,0.03156 0.0313,0.07171 0.0473,0.08924 0.016,0.01752 0.0993,0.144038 0.18511,0.281142 l 0.15599,0.24928 h 0.31923 c 0.17558,0 0.31924,-0.0061 0.31924,-0.01354 0,-0.0074 -0.0875,-0.102473 -0.19445,-0.211168 -0.10695,-0.108696 -0.20148,-0.219782 -0.21007,-0.246858 -0.009,-0.02708 -0.0266,-0.04923 -0.0399,-0.04923 -0.0134,0 -0.0243,-0.01794 -0.0243,-0.03988 0,-0.02193 -0.0176,-0.04662 -0.0391,-0.05487 -0.0215,-0.0082 -0.0391,-0.02952 -0.0391,-0.04728 0,-0.02843 -0.0246,-0.06418 -0.12972,-0.188888 -0.0146,-0.0173 -0.0265,-0.04128 -0.0265,-0.05329 0,-0.02098 -0.0393,-0.07673 -0.13671,-0.193905 -0.0251,-0.03015 -0.0456,-0.06524 -0.0456,-0.07797 0,-0.01273 -0.0119,-0.03731 -0.0265,-0.05461 -0.10181,-0.12073 -0.12972,-0.159398 -0.12972,-0.179753 0,-0.0215 -0.0203,-0.05033 -0.0942,-0.133744 -0.016,-0.01807 -0.0373,-0.05868 -0.0473,-0.09024 -0.01,-0.03156 -0.0291,-0.05738 -0.0425,-0.05738 -0.0134,0 -0.0243,-0.01794 -0.0243,-0.03988 0,-0.02193 -0.0165,-0.04622 -0.0367,-0.05396 -0.0202,-0.0077 -0.0438,-0.04253 -0.0526,-0.0773 -0.009,-0.03477 -0.0274,-0.06322 -0.0414,-0.06322 -0.014,0 -0.0255,-0.01219 -0.0255,-0.02709 0,-0.03083 -0.10706,-0.189748 -0.13671,-0.202925 -0.0107,-0.0048 -0.0195,-0.01989 -0.0195,-0.0336 0,-0.02921 -0.10819,-0.188077 -0.13671,-0.200754 -0.0107,-0.0048 -0.0195,-0.02487 -0.0195,-0.04465 0,-0.01979 -0.0214,-0.0474 -0.0475,-0.06137 -0.0366,-0.0196 -0.0559,-0.01317 -0.0846,0.02814 -0.0204,0.02944 -0.0577,0.08039 -0.0828,0.113218 -0.0251,0.03283 -0.0456,0.07248 -0.0456,0.08813 0,0.01564 -0.0117,0.02844 -0.026,0.02844 -0.0143,0 -0.026,0.01578 -0.026,0.03507 0,0.03077 -0.0191,0.05916 -0.12653,0.188264 -0.0128,0.01542 -0.0314,0.05351 -0.0413,0.08463 -0.01,0.03112 -0.0289,0.05659 -0.0422,0.05659 -0.0134,0 -0.0243,0.01794 -0.0243,0.03988 0,0.02193 -0.0165,0.04622 -0.0367,0.05396 -0.0202,0.0077 -0.0438,0.04253 -0.0526,0.0773 -0.009,0.03477 -0.0274,0.06321 -0.0414,0.06321 -0.014,0 -0.0256,0.01219 -0.0256,0.02709 0,0.03083 -0.10706,0.189748 -0.1367,0.202924 -0.0108,0.0048 -0.0195,0.02565 -0.0195,0.04639 0,0.02074 -0.0165,0.04405 -0.0367,0.05179 -0.0202,0.0077 -0.0438,0.04253 -0.0526,0.0773 -0.009,0.03477 -0.0274,0.06322 -0.0414,0.06322 -0.0141,0 -0.0255,0.01794 -0.0255,0.03988 0,0.02193 -0.0165,0.04622 -0.0367,0.05396 -0.0202,0.0077 -0.0439,0.04253 -0.0526,0.0773 -0.009,0.03477 -0.0274,0.06321 -0.0414,0.06321 -0.014,0 -0.0255,0.01795 -0.0255,0.03988 0,0.02193 -0.0176,0.04662 -0.0391,0.05487 -0.0215,0.0082 -0.0391,0.02952 -0.0391,0.04728 0,0.02843 -0.0246,0.06418 -0.12972,0.188887 -0.0146,0.0173 -0.0265,0.04114 -0.0265,0.05298 0,0.03074 -0.11755,0.17041 -0.30597,0.363561 -0.0895,0.09176 -0.16275,0.172042 -0.16275,0.178407 0,0.0064 0.15234,0.01157 0.33852,0.01157 0.28452,0 0.33852,-0.0063 0.33852,-0.03931 0,-0.02162 0.0234,-0.05938 0.0521,-0.08391 0.0286,-0.02452 0.0521,-0.05956 0.0521,-0.07786 0,-0.0183 0.0117,-0.03327 0.026,-0.03327 0.0143,0 0.026,-0.0148 0.026,-0.0329 0,-0.01809 0.041,-0.0938 0.0911,-0.168232 0.0501,-0.07443 0.0911,-0.147514 0.0911,-0.162401 0,-0.01489 0.0115,-0.02707 0.0255,-0.02707 0.014,0 0.0327,-0.02845 0.0414,-0.06322 0.009,-0.03477 0.0324,-0.06955 0.0526,-0.0773 0.0202,-0.0077 0.0367,-0.03203 0.0367,-0.05396 0,-0.02193 0.0109,-0.03988 0.0243,-0.03988 0.0134,0 0.0324,-0.02546 0.0422,-0.05659 0.0169,-0.05312 0.0346,-0.07995 0.1058,-0.160357 0.016,-0.01807 0.0373,-0.05868 0.0473,-0.09024 0.01,-0.03156 0.0278,-0.05738 0.0395,-0.05738 0.0117,0 0.0274,-0.02344 0.0349,-0.05208 0.0153,-0.05862 0.0966,-0.07192 0.0966,-0.01581 0,0.01995 0.0176,0.04302 0.0391,0.05126 0.0341,0.0131 0.0391,0.217039 0.0391,1.617255 0,0.881246 -0.007,1.602266 -0.0146,1.602266 -0.008,0 -0.0842,-0.07201 -0.16926,-0.160013 l -0.15464,-0.160012 v -0.202685 c 0,-0.127735 0.0122,-0.21541 0.0329,-0.237095 0.092,-0.0963 0.12335,-0.181686 0.12335,-0.336378 0,-0.156209 -0.003,-0.163856 -0.12026,-0.280844 -0.11981,-0.119812 -0.12094,-0.120263 -0.30041,-0.120263 -0.10404,0 -0.18799,0.01227 -0.19872,0.02904 -0.0102,0.01597 -0.0438,0.0369 -0.0746,0.0465 -0.0308,0.0096 -0.0632,0.04634 -0.0721,0.08163 -0.009,0.03529 -0.0276,0.06417 -0.0417,0.06417 -0.0464,0 -0.0294,0.319083 0.0211,0.395693 0.0654,0.09911 0.16131,0.177183 0.21775,0.177183 0.0265,0 0.0481,0.01172 0.0481,0.02604 0,0.01432 0.0176,0.02604 0.0391,0.02604 0.0313,0 0.0391,0.0395 0.0391,0.199245 v 0.199244 l 0.31247,0.310948 0.31248,0.310947 v 0.63556 c 0,0.349558 -0.004,0.63556 -0.01,0.63556 -0.005,0 -0.0582,-0.04686 -0.11718,-0.10413 l -0.1073,-0.104131 V 41.16318 c 0,-0.411667 -0.004,-0.446451 -0.0534,-0.496118 -0.055,-0.05503 -0.146,-0.04954 -0.18792,0.01135 -0.011,0.01597 -0.0169,0.252658 -0.013,0.525969 l 0.007,0.49693 0.24087,0.240807 0.24087,0.240806 v 2.508871 c 0,2.760689 -0.0102,2.590711 0.15624,2.590711 0.0409,0 0.0928,-0.01841 0.11532,-0.04092 z m 0.50042,-7.131807 c -0.13324,-0.123484 -0.0563,-0.326741 0.12376,-0.326741 0.13188,0 0.19793,0.06523 0.19793,0.195472 0,0.08914 -0.0119,0.112804 -0.0756,0.150451 -0.10318,0.06095 -0.16479,0.05615 -0.24607,-0.01918 z m -1.51281,-0.880955 c -0.0648,-0.07031 -0.0651,-0.197479 -7.3e-4,-0.27268 0.0692,-0.08084 0.2137,-0.07874 0.29237,0.0042 0.0762,0.08039 0.0743,0.173116 -0.005,0.258986 -0.0797,0.08604 -0.21181,0.09039 -0.28638,0.0094 z m 1.51567,5.873911 0.007,-2.166751 0.35139,-0.349564 0.35139,-0.349564 v -0.603052 c 0,-0.44475 0.009,-0.61306 0.0326,-0.641176 0.0268,-0.03135 0.34825,-0.351066 0.47658,-0.473965 0.0251,-0.02404 0.18479,-0.03255 0.61058,-0.03255 0.51253,0 0.57226,-0.0043 0.53754,-0.03906 -0.0215,-0.02148 -0.0475,-0.03906 -0.0578,-0.03906 -0.0103,0 -0.0586,-0.04101 -0.10727,-0.09114 -0.0487,-0.05013 -0.0989,-0.09114 -0.11155,-0.09114 -0.0232,0 -0.14165,-0.108517 -0.57559,-0.527306 -0.12984,-0.125317 -0.24106,-0.227849 -0.24713,-0.227849 -0.006,0 -0.0111,0.148226 -0.0111,0.329389 V 40.1294 l -0.3906,0.382815 -0.3906,0.382815 v 0.613971 0.613971 l -0.36456,0.363706 -0.36455,0.363707 v 2.165723 c 0,1.482653 0.009,2.182074 0.0277,2.217562 0.0215,0.0401 0.0495,0.05003 0.12369,0.04386 l 0.0959,-0.008 z m -1.47068,0.565004 c 0.0501,-0.05847 0.0583,-0.103861 0.0188,-0.103861 -0.0143,0 -0.026,-0.01632 -0.026,-0.03627 0,-0.01995 -0.0185,-0.04339 -0.0412,-0.05208 -0.0227,-0.0087 -0.53727,-0.01581 -1.14359,-0.01581 -0.60631,0 -1.10629,-0.0092 -1.11107,-0.02049 -0.005,-0.01127 -0.0585,-0.06011 -0.11935,-0.108518 -0.0834,-0.06636 -0.11067,-0.106174 -0.11067,-0.161784 0,-0.04057 -0.0102,-0.07376 -0.0228,-0.07376 -0.0125,0 -0.03,-0.03591 -0.0388,-0.07981 -0.0192,-0.09613 -0.14019,-0.223486 -0.23483,-0.24724 -0.0378,-0.0095 -0.0751,-0.02766 -0.083,-0.04039 -0.008,-0.01273 -0.0539,-0.02315 -0.10237,-0.02315 -0.0484,0 -0.0945,0.01042 -0.10238,0.02315 -0.008,0.01273 -0.044,0.03061 -0.0803,0.03972 -0.13525,0.03395 -0.24696,0.218886 -0.24696,0.408866 0,0.169217 0.071,0.285871 0.23995,0.394288 0.075,0.04813 0.38501,0.06596 0.38501,0.02215 0,-0.01277 0.0293,-0.03057 0.0651,-0.03956 0.0358,-0.009 0.0651,-0.02783 0.0651,-0.04188 0,-0.05746 0.0831,-0.01872 0.19669,0.09164 l 0.12057,0.117179 h 1.16362 c 1.13359,0 1.16477,-0.0014 1.20846,-0.05238 z m -3.07668,-0.278153 c -0.15485,-0.0627 -0.18137,-0.260016 -0.0506,-0.376732 0.0781,-0.06976 0.20363,-0.101148 0.20363,-0.05093 0,0.01265 0.0234,0.02913 0.0521,0.03662 0.0286,0.0075 0.0521,0.03229 0.0521,0.05512 0,0.02282 0.0117,0.0415 0.026,0.0415 0.0143,0 0.026,0.03515 0.026,0.07812 0,0.04297 -0.0117,0.07812 -0.026,0.07812 -0.0143,0 -0.026,0.01255 -0.026,0.0279 0,0.07179 -0.17104,0.14515 -0.25715,0.110286 z m 7.23653,0.257516 c 0.0354,-0.04016 0.10141,-0.09479 0.14666,-0.1214 0.0712,-0.04187 0.0877,-0.04343 0.12278,-0.01161 0.0223,0.02022 0.058,0.05142 0.0794,0.06932 0.0223,0.01864 0.11048,0.03255 0.20649,0.03255 0.1634,0 0.17082,-0.003 0.29405,-0.119415 l 0.12642,-0.119416 V 45.173432 44.96967 l -0.10862,-0.106479 c -0.0598,-0.05856 -0.13298,-0.106479 -0.16275,-0.106479 -0.0298,0 -0.0541,-0.01172 -0.0541,-0.02604 0,-0.01432 -0.0469,-0.02604 -0.10416,-0.02604 -0.0573,0 -0.10416,0.01045 -0.10416,0.02322 0,0.01277 -0.0296,0.03064 -0.0658,0.03972 -0.11262,0.02827 -0.22744,0.174345 -0.25784,0.32804 -0.0219,0.110643 -0.0679,0.207937 -0.0983,0.207937 -0.0124,0 -0.0569,0.03515 -0.0989,0.07812 l -0.0764,0.07812 h -1.09626 c -0.70588,0 -1.1142,0.0096 -1.14663,0.02696 -0.058,0.03102 -0.0714,0.194564 -0.0178,0.216197 0.0179,0.0072 0.55432,0.01406 1.19204,0.01519 l 1.15948,0.0021 z m 0.46847,-0.257757 c -0.099,-0.04134 -0.14418,-0.148864 -0.11898,-0.283218 0.0123,-0.06544 0.0334,-0.09287 0.0806,-0.104718 0.0352,-0.0088 0.064,-0.0265 0.064,-0.03927 0,-0.05534 0.19239,0.01401 0.23788,0.08574 0.0436,0.06873 0.0251,0.241815 -0.0309,0.289797 -0.0596,0.05099 -0.17349,0.07631 -0.23251,0.05167 z m -6.38022,-0.190025 c 0,-0.01432 0.0187,-0.02604 0.0415,-0.02604 0.0228,0 0.0476,-0.02344 0.0551,-0.05208 0.0132,-0.05064 0.0355,-0.05208 0.80714,-0.05208 0.79106,0 0.79366,-1.82e-4 0.84239,-0.05859 0.0629,-0.07543 0.0626,-0.111681 -0.001,-0.175769 -0.0497,-0.04971 -0.0868,-0.05208 -0.81661,-0.05208 h -0.76454 l -0.0996,-0.09392 c -0.0943,-0.08893 -0.10736,-0.09336 -0.2458,-0.08335 -0.2099,0.01518 -0.27384,0.0843 -0.27384,0.296012 0,0.139798 0.009,0.167139 0.0781,0.239614 0.0695,0.07274 0.0947,0.08195 0.22785,0.08306 0.0833,6.98e-4 0.14973,-0.0103 0.14973,-0.02479 z m 5.58678,-0.04286 c 0.0351,-0.0379 0.0639,-0.08477 0.0639,-0.104159 0,-0.01939 0.0117,-0.03526 0.026,-0.03526 0.0698,0 -0.003,-0.265898 -0.0993,-0.363129 -0.0206,-0.02081 -0.10463,-0.0425 -0.18793,-0.04852 -0.14475,-0.01047 -0.15416,-0.0072 -0.24199,0.0832 l -0.0914,0.0941 h -0.75918 c -0.82399,0 -0.83359,0.0016 -0.83359,0.143219 0,0.141958 0.008,0.143219 0.85746,0.143219 0.60906,0 0.78306,0.0072 0.7831,0.03255 8e-5,0.05878 0.13933,0.118861 0.28112,0.121308 0.1174,0.002 0.14747,-0.0079 0.20181,-0.06652 z M 180.36404,44.5765 c 0,-0.01318 0.0329,-0.03119 0.0731,-0.04002 0.0427,-0.0094 0.0921,-0.04817 0.11866,-0.09321 l 0.0456,-0.07716 h 1.73741 c 1.70848,0 1.73816,-8.72e-4 1.78226,-0.05238 0.0501,-0.05847 0.0583,-0.103862 0.0188,-0.103862 -0.0143,0 -0.026,-0.01758 -0.026,-0.03906 0,-0.02148 -0.0176,-0.03906 -0.0391,-0.03906 -0.0215,0 -0.0391,-0.01211 -0.0391,-0.02692 0,-0.0183 -0.55754,-0.02564 -1.74156,-0.02293 l -1.74156,0.004 -0.0552,-0.05519 c -0.0303,-0.03035 -0.0728,-0.05519 -0.0943,-0.05519 -0.0215,0 -0.0391,-0.01172 -0.0391,-0.02604 0,-0.08324 -0.28469,0.02405 -0.34795,0.131135 -0.0933,0.157948 -0.029,0.400779 0.1258,0.475162 0.091,0.04371 0.22215,0.05595 0.22215,0.02073 z m 9.42642,-0.0021 c 0,-0.01432 0.0146,-0.02624 0.0326,-0.02649 0.0179,-2.34e-4 0.0589,-0.02826 0.0911,-0.06226 0.0473,-0.04988 0.0586,-0.09174 0.0586,-0.216904 0,-0.168068 -0.041,-0.241919 -0.17186,-0.309825 -0.0797,-0.04135 -0.21874,-0.04737 -0.21874,-0.0095 0,0.01432 -0.0176,0.02604 -0.0391,0.02604 -0.0215,0 -0.0641,0.02501 -0.0946,0.05557 -0.0555,0.05555 -0.0562,0.05557 -1.77722,0.05859 -1.35023,0.0024 -1.73429,0.01024 -1.78024,0.03649 -0.0649,0.03705 -0.0804,0.155639 -0.0273,0.208704 0.0237,0.02368 0.44948,0.03125 1.75706,0.03125 h 1.72581 l 0.0829,0.09114 c 0.0456,0.05013 0.0986,0.09114 0.11781,0.09114 0.0192,0 0.0349,0.01172 0.0349,0.02604 0,0.01432 0.0469,0.02604 0.10416,0.02604 0.0573,0 0.10416,-0.01172 0.10416,-0.02604 z m -6.69177,-0.885818 c 0.0858,-0.08578 0.10578,-0.328995 0.035,-0.426059 -0.0267,-0.03663 -0.0622,-0.06697 -0.0789,-0.06742 -0.0167,-4.51e-4 -0.0353,-0.01547 -0.0412,-0.03337 -0.007,-0.02037 -0.0606,-0.03255 -0.14376,-0.03255 -0.1171,0 -0.14191,0.01007 -0.20847,0.08463 l -0.0756,0.08463 -0.37525,-3.99e-4 c -0.20639,-2.08e-4 -0.38822,-0.009 -0.40405,-0.01953 -0.0158,-0.01052 -0.0369,-0.06307 -0.0468,-0.11678 -0.01,-0.05371 -0.0291,-0.09765 -0.0428,-0.09765 -0.0137,0 -0.0249,-0.01392 -0.0249,-0.03094 0,-0.03491 -0.10916,-0.202968 -0.13202,-0.203242 -0.008,-9.8e-5 -0.0542,0.03498 -0.10234,0.07794 -0.0481,0.04297 -0.0967,0.07812 -0.10795,0.07812 -0.0112,0 -0.0547,0.03222 -0.0966,0.07161 -0.10195,0.09583 -0.23288,0.196477 -0.29314,0.225318 -0.027,0.01293 -0.0491,0.03344 -0.0491,0.04557 0,0.01213 -0.015,0.02206 -0.0333,0.02206 -0.0183,0 -0.0533,0.02344 -0.0779,0.05208 -0.0245,0.02864 -0.0623,0.05208 -0.0839,0.05208 -0.0216,0 -0.0393,0.01172 -0.0393,0.02604 0,0.01432 -0.017,0.02604 -0.0378,0.02604 -0.0208,0 -0.0471,0.01586 -0.0586,0.03524 -0.0114,0.01938 -0.0384,0.04189 -0.0599,0.05002 -0.0215,0.0081 0.23255,0.01571 0.56451,0.01684 0.50372,0.0017 0.61002,-0.0044 0.64262,-0.037 0.0312,-0.03119 0.11652,-0.03906 0.42374,-0.03906 h 0.38468 l 0.11361,0.120265 c 0.11153,0.118065 0.11611,0.120058 0.25039,0.108922 0.0993,-0.0082 0.15378,-0.02833 0.19886,-0.07341 z m 4.12291,0.03953 c 0.0451,-0.02148 0.10549,-0.07418 0.13413,-0.117104 l 0.0521,-0.07805 0.40734,-7.8e-5 c 0.33811,-5.2e-5 0.40989,0.0066 0.42233,0.03898 0.0127,0.03316 0.10586,0.03906 0.61659,0.03906 0.50896,0 0.5961,-0.0055 0.56596,-0.03562 -0.0196,-0.01959 -0.0614,-0.04382 -0.093,-0.05383 -0.0316,-0.01001 -0.0574,-0.02914 -0.0574,-0.04249 0,-0.01336 -0.015,-0.02428 -0.0333,-0.02428 -0.0183,0 -0.0533,-0.02344 -0.0779,-0.05208 -0.0245,-0.02864 -0.061,-0.05208 -0.0811,-0.05208 -0.0201,0 -0.0433,-0.01758 -0.0515,-0.03906 -0.008,-0.02148 -0.0329,-0.03906 -0.0549,-0.03906 -0.0219,0 -0.0399,-0.0092 -0.0399,-0.02043 0,-0.01123 -0.0322,-0.03977 -0.0716,-0.06342 -0.0831,-0.04989 -0.21066,-0.153862 -0.33643,-0.274203 -0.0487,-0.04655 -0.0938,-0.08463 -0.1003,-0.08463 -0.0286,0 -0.11661,0.09279 -0.11661,0.122966 0,0.0183 -0.0108,0.03327 -0.024,0.03327 -0.0132,0 -0.0317,0.03502 -0.0411,0.07782 -0.009,0.0428 -0.0279,0.08451 -0.0411,0.09268 -0.0132,0.0082 -0.024,0.04346 -0.024,0.07842 v 0.06356 h -0.4034 c -0.37519,0 -0.40567,-0.0036 -0.43592,-0.05208 -0.0179,-0.02864 -0.0463,-0.05208 -0.0632,-0.05208 -0.0168,0 -0.0355,-0.01465 -0.0415,-0.03255 -0.007,-0.02061 -0.0618,-0.03255 -0.14972,-0.03255 -0.088,0 -0.14286,0.01194 -0.14973,0.03255 -0.006,0.0179 -0.0245,0.03262 -0.0412,0.03271 -0.0529,2.86e-4 -0.12152,0.155874 -0.12152,0.275364 0,0.06329 0.0117,0.115069 0.026,0.115069 0.0143,0 0.026,0.01643 0.026,0.0365 0,0.05195 0.15555,0.144818 0.24344,0.145338 0.0408,2.34e-4 0.11111,-0.01714 0.15624,-0.03862 z m -3.57654,-0.07812 c 0,-0.02148 0.0117,-0.03906 0.026,-0.03906 0.0454,0 0.0329,-0.551544 -0.014,-0.618518 -0.022,-0.03148 -0.15169,-0.16884 -0.2881,-0.305252 l -0.24803,-0.248021 h -0.3759 c -0.35474,0 -0.37591,-0.0028 -0.37591,-0.05054 0,-0.0278 -0.0117,-0.05779 -0.026,-0.06664 -0.0143,-0.0089 -0.026,-0.03623 -0.026,-0.06085 0,-0.103662 -0.20416,-0.19894 -0.36437,-0.170047 -0.10566,0.01906 -0.15729,0.06581 -0.22105,0.200181 -0.0392,0.08267 -0.041,0.108156 -0.0123,0.180661 0.0403,0.102179 0.12548,0.201592 0.17265,0.201592 0.019,0 0.0345,0.01172 0.0345,0.02604 0,0.0367 0.20179,0.03261 0.21411,-0.0043 0.006,-0.01671 0.0505,-0.02967 0.0998,-0.0288 0.0493,8.72e-4 0.22761,0.0025 0.39618,0.0037 0.182,0.0013 0.33007,0.01465 0.36455,0.03297 0.0319,0.01697 0.13717,0.109786 0.23384,0.206263 l 0.17577,0.175413 v 0.249775 c 0,0.198712 0.009,0.260482 0.0448,0.302152 0.0534,0.06234 0.18951,0.07191 0.18951,0.01332 z m 2.87461,-0.0021 c 0.009,-0.02265 0.0158,-0.156759 0.0158,-0.298011 v -0.256822 l 0.16477,-0.164768 c 0.25574,-0.255743 0.23789,-0.249163 0.70218,-0.258891 0.29913,-0.0063 0.41533,5.2e-5 0.43913,0.02384 0.0178,0.0178 0.0554,0.03237 0.0835,0.03237 0.0764,0 0.25092,-0.08348 0.25092,-0.120021 0,-0.01753 0.0146,-0.03676 0.0325,-0.04273 0.0212,-0.0071 0.0326,-0.06515 0.0326,-0.166639 0,-0.136945 -0.009,-0.163912 -0.0725,-0.22294 -0.0899,-0.0833 -0.2271,-0.111266 -0.34882,-0.0711 -0.12228,0.04036 -0.17977,0.101546 -0.20082,0.213727 -0.01,0.05071 -0.0355,0.09918 -0.0578,0.107727 -0.0223,0.0085 -0.19281,0.01553 -0.37898,0.01553 h -0.33851 l -0.2713,0.271298 -0.2713,0.271299 v 0.338467 c 0,0.246409 0.009,0.342039 0.0326,0.351601 0.0709,0.0286 0.17078,0.01574 0.186,-0.02394 z m -3.08122,-1.470036 c 0.0879,-0.04706 0.0609,-0.142082 -0.0798,-0.2806 -0.12147,-0.119567 -0.1302,-0.136812 -0.1302,-0.25715 0,-0.107101 -0.0135,-0.144145 -0.0797,-0.218308 -0.0746,-0.08352 -0.0902,-0.08932 -0.24087,-0.08932 -0.20615,0 -0.28072,0.06279 -0.29887,0.251663 -0.01,0.102488 -5.5e-4,0.143005 0.0498,0.216932 0.0341,0.05 0.0765,0.09099 0.0945,0.09108 0.0179,1.04e-4 0.0326,0.0119 0.0326,0.02622 0,0.01439 0.0681,0.02604 0.15236,0.02604 0.14948,0 0.15462,0.0025 0.27229,0.130199 0.12637,0.137183 0.1471,0.146568 0.22805,0.103243 z m 3.25859,-0.03604 c 0.0329,-0.03465 0.0869,-0.09502 0.11993,-0.134166 0.0532,-0.06289 0.0766,-0.07063 0.20181,-0.06654 0.0779,0.0025 0.14165,-0.0061 0.14165,-0.01925 0,-0.01313 0.0265,-0.03052 0.0589,-0.03865 0.0803,-0.02014 0.14946,-0.146347 0.14946,-0.272585 0,-0.08461 -0.0177,-0.122689 -0.0935,-0.200746 -0.09,-0.09267 -0.0992,-0.09592 -0.24215,-0.08558 -0.20452,0.01479 -0.26971,0.08107 -0.28479,0.28955 -0.0105,0.145872 -0.0183,0.16078 -0.15101,0.291412 -0.0769,0.07572 -0.13989,0.150528 -0.13989,0.166237 0,0.04755 0.0867,0.133316 0.1348,0.133316 0.0248,0 0.072,-0.02835 0.10488,-0.06299 z m -4.32142,-0.623523 c 0.0967,-0.147075 0.17577,-0.280022 0.17577,-0.295437 0,-0.01541 0.0176,-0.03477 0.0391,-0.04302 0.0215,-0.0082 0.0391,-0.03293 0.0391,-0.05487 0,-0.02193 0.0117,-0.03988 0.026,-0.03988 0.015,0 0.026,-0.08246 0.026,-0.195298 0,-0.18422 -0.0229,-0.237161 -0.0703,-0.162508 -0.0114,0.01803 -0.11356,0.114707 -0.22691,0.214828 -0.11335,0.100121 -0.27365,0.246486 -0.35622,0.325257 -0.20534,0.195874 -0.41185,0.375563 -0.44516,0.387342 -0.0318,0.01126 -0.12527,0.101077 -0.12527,0.120434 0,0.0072 0.16698,0.01247 0.37107,0.01179 l 0.37107,-0.0012 z m 6.11285,0.249627 c 0,-0.02458 -0.0968,-0.109947 -0.1247,-0.109947 -0.011,0 -0.0489,-0.03242 -0.0843,-0.07205 -0.0354,-0.03963 -0.0995,-0.09841 -0.14251,-0.130635 -0.083,-0.06226 -0.33758,-0.294092 -0.64578,-0.588127 l -0.1875,-0.178871 -0.008,0.190327 c -0.006,0.158722 0.001,0.202304 0.0456,0.262447 0.0293,0.03967 0.0533,0.08431 0.0533,0.09921 0,0.0149 0.0115,0.02709 0.0256,0.02709 0.014,0 0.0327,0.02845 0.0414,0.06321 0.009,0.03477 0.0324,0.06956 0.0526,0.0773 0.0202,0.0077 0.0367,0.03203 0.0367,0.05396 0,0.02193 0.0115,0.03988 0.0256,0.03988 0.014,0 0.0327,0.02845 0.0414,0.06322 0.009,0.03477 0.0324,0.06955 0.0526,0.0773 0.0202,0.0077 0.0367,0.02667 0.0367,0.04204 0,0.08619 0.0646,0.101895 0.42315,0.102887 0.19692,5.44e-4 0.35805,-0.0081 0.35805,-0.01926 z m -4.67134,-1.561667 c 0.0452,-0.05953 0.0449,-0.105739 -9.5e-4,-0.151589 -0.0728,-0.07281 -0.24924,-0.02551 -0.24924,0.06681 0,0.01629 0.0121,0.05228 0.027,0.07998 0.0347,0.06488 0.17532,0.06791 0.22323,0.0048 z m -0.50808,-0.961208 c 0.12365,-0.06041 0.22361,-0.178001 0.24408,-0.287131 0.0195,-0.104015 -0.005,-0.29452 -0.0385,-0.29452 -0.0119,0 -0.0294,-0.03515 -0.0388,-0.07812 -0.0268,-0.122125 -0.0685,-0.106061 -0.32096,0.123689 -0.0669,0.06087 -0.12878,0.110669 -0.13755,0.110669 -0.009,0 -0.0582,0.03808 -0.10974,0.08463 -0.11904,0.107415 -0.14096,0.12507 -0.252,0.20297 -0.0501,0.03517 -0.097,0.07065 -0.10416,0.07886 -0.007,0.0082 -0.0335,0.02249 -0.0586,0.03173 -0.0251,0.0092 -0.0456,0.0289 -0.0456,0.04367 0,0.01724 0.13838,0.02686 0.38659,0.02686 0.3076,0 0.40471,-0.0089 0.47523,-0.0433 z m 4.21594,0.01726 c 0,-0.01432 -0.0177,-0.02604 -0.0393,-0.02604 -0.0216,0 -0.0594,-0.02344 -0.0839,-0.05208 -0.0245,-0.02864 -0.0596,-0.05208 -0.0779,-0.05208 -0.0183,0 -0.0334,-0.0088 -0.0335,-0.01953 -1.1e-4,-0.01074 -0.0439,-0.04883 -0.0974,-0.08463 -0.0535,-0.0358 -0.12213,-0.09146 -0.15254,-0.12369 -0.0304,-0.03222 -0.0645,-0.05859 -0.0757,-0.05859 -0.0112,0 -0.0602,-0.04101 -0.10894,-0.09114 -0.0487,-0.05013 -0.0993,-0.09114 -0.1124,-0.09114 -0.0131,0 -0.0598,-0.03515 -0.1038,-0.07812 -0.044,-0.04297 -0.0887,-0.07812 -0.0994,-0.07812 -0.0279,0 -0.10888,0.143397 -0.10888,0.192807 0,0.02285 -0.0117,0.04155 -0.026,0.04155 -0.0414,0 -0.0302,0.192048 0.0168,0.286243 0.11132,0.22316 0.19548,0.254481 0.69276,0.25783 0.25789,0.0017 0.41012,-0.0069 0.41012,-0.02328 z m -1.56239,-0.812551 c 0,-0.06927 -0.0816,-0.150922 -0.15086,-0.150922 -0.14091,0 -0.18572,0.166091 -0.0639,0.236905 0.0651,0.03782 0.0781,0.0379 0.14317,8.96e-4 0.0394,-0.02239 0.0716,-0.06149 0.0716,-0.08688 z"
       id="path1"
       sodipodi:nodetypes="sscccsssscccssssscccccccssssscssscccsssssscssssssscccccssscsssssssssssscssssssssssssssssssssssssssssssssssssssssssssssssssssssssssssssssssssssssssssssscsssssssssssssscccssscsssscccssssssssssssssccccssssssssssscccccccsssccssssssssssssssssssssscsssssssssssssssssscccssssssssscsssscssssssssssssssscssssssssssssscssscssssscssssssscssssssscsssssssssscsssssssssssccsssssssssssssssssssscsssssccssscssssssssssssssscsssssssssscssssscssssssssssscsscssssscsscssssssssscccssssssssssscssssssssssssssssssssssssssssscsssssscssssssssssssssssssssssssssssssssssscsssssssssssssssss" />
  </g>
</svg>
